<svg width="26" height="12" viewBox="0 0 26 12" fill="none" xmlns="http://www.w3.org/2000/svg">
<path d="M23.24 0.92C21.4445 2.54367 19.7512 4.27699 18.17 6.11C16.5987 7.93614 14.8238 9.57678 12.88 11C12.66 10.47 11.26 9.49 11.26 9.49C11.26 9.49 8.13001 7.35 6.08001 5.67C4.97415 4.73735 3.92871 3.73532 2.95001 2.67L0.950012 2.56C3.84019 6.76554 8.07022 9.86757 12.95 11.36C13.81 11.22 16.22 9.5 18.02 8.1C20.1389 6.28186 22.124 4.31343 23.96 2.21C24.4625 1.62103 24.8493 0.942478 25.1 0.209999C24 0.599999 23.24 0.92 23.24 0.92Z" fill="#F06351"/>
</svg>
