<svg width="8" height="3" viewBox="0 0 8 3" fill="none" xmlns="http://www.w3.org/2000/svg">
<path d="M2.71 2.59C2.24531 2.52474 1.79889 2.3651 1.39819 2.1209C0.99749 1.87669 0.650991 1.55309 0.380003 1.17C0.366699 1.15696 0.35613 1.14141 0.348914 1.12424C0.341699 1.10706 0.337982 1.08863 0.337982 1.07C0.337982 1.05137 0.341699 1.03294 0.348914 1.01576C0.35613 0.998593 0.366699 0.983034 0.380003 0.969999C0.393038 0.956695 0.408597 0.946127 0.425768 0.938911C0.442939 0.931696 0.461377 0.92798 0.480002 0.92798C0.498628 0.92798 0.517067 0.931696 0.534238 0.938911C0.551409 0.946127 0.566968 0.956695 0.580003 0.969999C1.08477 1.66421 1.84296 2.13133 2.69 2.27C3.02166 2.24504 3.34258 2.14129 3.62608 1.96736C3.90958 1.79343 4.14748 1.55436 4.32 1.27L4.46 1.08L4.56 1.29C4.56 1.29 4.93 2.05 5.56 2.09C6.19 2.13 6.61 1.68 7.17 0.809999C7.18304 0.796696 7.1986 0.786127 7.21577 0.778912C7.23294 0.771696 7.25138 0.767979 7.27 0.767979C7.28863 0.767979 7.30707 0.771696 7.32424 0.778912C7.34141 0.786127 7.35697 0.796696 7.37 0.809999C7.40232 0.830631 7.42551 0.862854 7.43481 0.900049C7.4441 0.937244 7.43881 0.976589 7.42 1.01C6.78 2.01 6.15 2.45 5.54 2.41C5.308 2.37627 5.08666 2.29035 4.89266 2.15871C4.69866 2.02707 4.53706 1.85313 4.42 1.65C4.22331 1.92448 3.9676 2.15139 3.67168 2.31406C3.37576 2.47673 3.04715 2.57102 2.71 2.59Z" fill="black"/>
</svg>
